<svg width="36" height="36" viewBox="0 0 36 36" fill="none" xmlns="http://www.w3.org/2000/svg">
<rect width="36" height="36" rx="9.81818" fill="#15787E"/>
<rect x="0.409091" y="0.409091" width="35.1818" height="35.1818" rx="9.40909" stroke="#FDFDFD" stroke-opacity="0.7" stroke-width="0.818182"/>
<g clip-path="url(#clip0_182_3356)">
<path fill-rule="evenodd" clip-rule="evenodd" d="M13.5413 25.8059V15.273H10.0407V25.8059H13.5413V25.8059ZM11.7913 13.8354C13.0117 13.8354 13.7718 13.0259 13.7718 12.0152C13.7488 10.9819 13.0117 10.1953 11.8142 10.1953C10.6166 10.1953 9.83374 10.982 9.83374 12.0152C9.83374 13.0259 10.5935 13.8354 11.7683 13.8354L11.7913 13.8354ZM15.4787 25.8059C15.4787 25.8059 15.5246 16.2612 15.4787 15.273H18.9798V16.8005H18.9566C19.4169 16.0817 20.2463 15.0257 22.1347 15.0257C24.4385 15.0257 26.1654 16.5311 26.1654 19.7664V25.806H22.6648V20.1711C22.6648 18.7553 22.1583 17.7891 20.8911 17.7891C19.9242 17.7891 19.348 18.4404 19.0949 19.0701C19.0023 19.2942 18.9798 19.6089 18.9798 19.9237V25.8059H15.4787Z" fill="#FDFDFD" fill-opacity="0.7"/>
</g>
<defs>
<clipPath id="clip0_182_3356">
<rect width="16.3636" height="16.3636" fill="white" transform="translate(9.81812 9.81836)"/>
</clipPath>
</defs>
</svg>
