<svg width="30" height="30" viewBox="0 0 30 30" fill="none" xmlns="http://www.w3.org/2000/svg">
<path opacity="0.987" fill-rule="evenodd" clip-rule="evenodd" d="M13.5177 1.98939C14.8771 1.83752 15.6814 1.83752 17.1421 1.98939C19.7276 2.37207 22.1244 3.56718 23.9858 5.40189C22.7279 6.5909 21.4866 7.79726 20.2621 9.02064C17.9171 7.03314 15.2996 6.57439 12.4096 7.64439C10.2896 8.61939 8.81332 10.1994 7.98082 12.3844C6.6204 11.3716 5.27769 10.3352 3.95332 9.27564C3.86128 9.2272 3.75616 9.20946 3.65332 9.22502C5.75707 5.16877 9.04457 2.75627 13.5158 1.98752" fill="#F44336"/>
<path opacity="0.997" fill-rule="evenodd" clip-rule="evenodd" d="M3.64922 9.22503C3.75547 9.20878 3.8561 9.22566 3.9511 9.27566C5.27547 10.3352 6.61817 11.3716 7.9786 12.3844C7.76452 13.2358 7.62957 14.1051 7.57547 14.9813C7.62172 15.8288 7.7561 16.6607 7.9786 17.4769L3.75047 20.8425C1.90922 16.995 1.87547 13.1225 3.64922 9.22503Z" fill="#FFC107"/>
<path opacity="0.999" fill-rule="evenodd" clip-rule="evenodd" d="M23.7851 24.9188C22.4686 23.7577 21.0903 22.6686 19.6564 21.6563C21.0939 20.6413 21.9664 19.2488 22.2739 17.4788H15.2295V12.5869C19.292 12.5531 23.3526 12.5875 27.4114 12.69C28.1814 16.8713 27.292 20.6413 24.7432 24C24.4402 24.3222 24.1191 24.6288 23.7851 24.9188Z" fill="#448AFF"/>
<path opacity="0.993" fill-rule="evenodd" clip-rule="evenodd" d="M7.97813 17.4788C9.51562 21.3 12.3344 23.0838 16.4344 22.83C17.5853 22.6968 18.6888 22.2947 19.6556 21.6563C21.0906 22.6713 22.4669 23.7588 23.7844 24.9188C21.6968 26.7946 19.0352 27.9076 16.2338 28.0763C15.5973 28.1271 14.9577 28.1271 14.3212 28.0763C9.54875 27.5138 6.025 25.1025 3.75 20.8425L7.97813 17.4788Z" fill="#43A047"/>
</svg>
